<?xml version="1.0" encoding="utf-8"?>
<!-- Generator: Adobe Illustrator 16.1.0, SVG Export Plug-In . SVG Version: 6.00 Build 0)  -->
<!DOCTYPE svg PUBLIC "-//W3C//DTD SVG 1.1//EN" "http://www.w3.org/Graphics/SVG/1.1/DTD/svg11.dtd">
<svg version="1.1" id="Layer_1" xmlns="http://www.w3.org/2000/svg" xmlns:xlink="http://www.w3.org/1999/xlink" x="0px" y="0px"
	 width="93.25px" height="93.25px" viewBox="0 0 93.25 93.25" enable-background="new 0 0 93.25 93.25" xml:space="preserve">
<g>
	<g>
		<path d="M23.397,10.25H0.25v83h27.107C47.626,90.667,56.25,75.404,56.25,52.1v-6.688C56.25,24.339,48.816,10.25,23.397,10.25z"/>
		<path d="M41.515,0.25C61.165,6.708,70.25,24.059,70.25,49.424v0.335c0,19.087-5.125,36.866-16.625,43.491H93.25v-93H41.515z"/>
	</g>
</g>
<g>
	<path d="M21.859,102.884c-0.431-0.112-0.909-0.159-1.419-0.159c-1.897,0-2.774,1.147-2.774,3.172v0.67
		c0,2.472,1.037,3.604,2.934,3.604c0.478,0,0.973-0.064,1.435-0.191v-1.562h1.738v2.121c-0.51,0.558-1.658,1.195-3.333,1.195
		c-2.966,0-4.927-1.944-4.927-5.405v-0.032c0-3.173,1.754-5.214,4.768-5.214c1.754,0,2.87,0.574,3.364,1.101v2.152h-1.786V102.884z"
		/>
	<path d="M25.176,107.54v-0.032c0-2.472,1.642-3.938,3.938-3.938c2.296,0,3.938,1.467,3.938,3.922v0.031
		c0,2.902-1.866,4.146-3.938,4.146C27.042,111.67,25.176,110.426,25.176,107.54z M31.012,107.764v-0.574
		c0-1.467-0.766-2.265-1.897-2.265c-1.132,0-1.882,0.798-1.882,2.265v0.574c0,1.944,0.83,2.582,1.882,2.582
		C30.167,110.346,31.012,109.708,31.012,107.764z"/>
	<path d="M34.09,110.395c0-0.701,0.574-1.275,1.244-1.275c0.686,0,1.244,0.574,1.244,1.275c0,0.67-0.558,1.244-1.244,1.244
		C34.665,111.639,34.09,111.064,34.09,110.395z"/>
	<path d="M38.125,101.307h4.863c2.966,0,4.608,1.754,4.608,4.959v0.031c0,3.54-1.818,5.198-4.911,5.198h-4.561v-1.435h0.909v-7.209
		h-0.909L38.125,101.307L38.125,101.307z M42.51,109.98c2.184,0,2.934-1.244,2.934-3.396v-0.75c0-1.786-0.574-2.854-2.615-2.854
		H41.09v7H42.51z"/>
	<path d="M55.124,102.964h-3.269v2.743h3.684v1.531h-3.684v2.773h3.396v-1.467h1.69v2.95h-8.053v-1.435h0.909v-7.209h-0.909v-1.545
		h7.941v3.028h-1.706V102.964z"/>
	<path d="M63.496,102.82c-0.398-0.112-0.829-0.16-1.229-0.16c-1.021,0-1.832,0.287-1.832,1.372c0,0.462,0.158,0.812,0.668,1.036
		c0.957,0.447,2.615,0.431,3.572,1.068c0.812,0.51,1.133,1.275,1.133,2.36c0,2.231-1.658,3.237-3.779,3.237
		c-1.754,0-2.981-0.494-3.588-1.053v-2.201h1.754v1.516c0.511,0.145,1.068,0.238,1.658,0.238c1.164,0,1.93-0.414,1.93-1.515
		c0-0.479-0.159-0.78-0.622-1.005c-0.67-0.382-2.376-0.479-3.333-1.004c-0.909-0.51-1.292-1.371-1.292-2.52
		c0-2.185,1.754-3.109,3.571-3.109c1.483,0,2.584,0.398,3.125,0.909v2.151h-1.737L63.496,102.82L63.496,102.82z"/>
	<path d="M67.148,101.307h4.065v1.545H70.21v7.209h1.004v1.435h-4.065v-1.435h1.004v-7.209h-1.004V101.307z"/>
	<path d="M77.4,106.089h3.795v4.306c-0.701,0.717-1.977,1.338-3.746,1.338c-2.902,0-4.928-1.881-4.928-5.39v-0.032
		c0-3.172,1.994-5.229,5.023-5.229c1.723,0,2.727,0.479,3.285,0.989v2.264h-1.77v-1.451c-0.416-0.096-0.877-0.16-1.371-0.16
		c-1.881,0-3.03,1.164-3.03,3.27v0.542c0,2.503,1.067,3.604,2.966,3.604c0.542,0,1.068-0.08,1.547-0.207v-2.297h-1.77v-1.546H77.4z"
		/>
	<path d="M89.25,101.307h3.843v1.545h-0.909v8.644h-2.758l-4.05-8.354v6.92h1.308v1.435h-3.955v-1.435h0.91v-7.209h-0.91v-1.545
		h3.955l3.764,7.924v-6.377H89.25V101.307z"/>
</g>
</svg>
