<?xml version="1.0" encoding="utf-8"?>
<!-- Generator: Adobe Illustrator 16.1.0, SVG Export Plug-In . SVG Version: 6.00 Build 0)  -->
<!DOCTYPE svg PUBLIC "-//W3C//DTD SVG 1.1//EN" "http://www.w3.org/Graphics/SVG/1.1/DTD/svg11.dtd">
<svg version="1.1" id="Layer_1" xmlns="http://www.w3.org/2000/svg" xmlns:xlink="http://www.w3.org/1999/xlink" x="0px" y="0px"
	 width="93.332px" height="92.667px" viewBox="0 0 93.332 92.667" enable-background="new 0 0 93.332 92.667" xml:space="preserve">
<g>
	<g>
		<path fill="#FFFFFF" d="M24.48,10H0.333v83H28.44c20.27-3,27.893-18.846,27.893-42.149v-6.689C56.333,23.089,49.9,10,24.48,10z"/>
		<path fill="#FFFFFF" d="M42.598,0c19.65,6,27.735,22.809,27.735,48.173v0.336c0,19.088-4.125,37.49-15.625,44.49h38.625V0H42.598z
			"/>
	</g>
</g>
<g>
	<path fill="#FFFFFF" d="M21.816,101.634c-0.431-0.112-0.909-0.16-1.419-0.16c-1.897,0-2.774,1.148-2.774,3.173v0.669
		c0,2.473,1.037,3.604,2.934,3.604c0.478,0,0.973-0.063,1.435-0.19v-1.563h1.738v2.121c-0.51,0.559-1.658,1.196-3.333,1.196
		c-2.966,0-4.927-1.944-4.927-5.405v-0.033c0-3.172,1.754-5.213,4.768-5.213c1.754,0,2.87,0.574,3.364,1.101v2.151h-1.786V101.634z"
		/>
	<path fill="#FFFFFF" d="M25.134,106.291v-0.033c0-2.471,1.642-3.938,3.938-3.938c2.296,0,3.938,1.467,3.938,3.922v0.032
		c0,2.901-1.866,4.146-3.938,4.146C27,110.419,25.134,109.175,25.134,106.291z M30.97,106.513v-0.574
		c0-1.467-0.766-2.264-1.897-2.264c-1.132,0-1.882,0.797-1.882,2.264v0.574c0,1.945,0.83,2.583,1.882,2.583
		C30.125,109.096,30.97,108.458,30.97,106.513z"/>
	<path fill="#FFFFFF" d="M34.048,109.145c0-0.702,0.574-1.276,1.244-1.276c0.686,0,1.244,0.574,1.244,1.276
		c0,0.669-0.558,1.244-1.244,1.244C34.622,110.388,34.048,109.814,34.048,109.145z"/>
	<path fill="#FFFFFF" d="M38.082,100.056h4.863c2.966,0,4.608,1.754,4.608,4.959v0.031c0,3.541-1.818,5.199-4.911,5.199h-4.561
		v-1.436h0.909v-7.208h-0.909L38.082,100.056L38.082,100.056z M42.467,108.73c2.184,0,2.934-1.244,2.934-3.396v-0.75
		c0-1.785-0.574-2.854-2.615-2.854h-1.738v7H42.467z"/>
	<path fill="#FFFFFF" d="M55.081,101.714h-3.269v2.742h3.684v1.531h-3.684v2.774h3.396v-1.468h1.69v2.951h-8.053v-1.436h0.909
		v-7.208h-0.909v-1.546h7.941v3.029h-1.706V101.714z"/>
	<path fill="#FFFFFF" d="M63.453,101.57c-0.398-0.111-0.829-0.16-1.229-0.16c-1.021,0-1.832,0.287-1.832,1.373
		c0,0.461,0.158,0.812,0.668,1.036c0.957,0.446,2.615,0.431,3.572,1.068c0.812,0.51,1.133,1.274,1.133,2.36
		c0,2.231-1.658,3.236-3.779,3.236c-1.754,0-2.981-0.494-3.588-1.052v-2.201h1.754v1.515c0.511,0.145,1.068,0.239,1.658,0.239
		c1.164,0,1.93-0.415,1.93-1.515c0-0.479-0.159-0.781-0.622-1.006c-0.67-0.381-2.376-0.478-3.333-1.004
		c-0.909-0.51-1.292-1.371-1.292-2.52c0-2.184,1.754-3.109,3.571-3.109c1.483,0,2.584,0.399,3.125,0.91v2.151h-1.737L63.453,101.57
		L63.453,101.57z"/>
	<path fill="#FFFFFF" d="M67.105,100.056h4.065v1.546h-1.004v7.208h1.004v1.436h-4.065v-1.436h1.004v-7.208h-1.004V100.056z"/>
	<path fill="#FFFFFF" d="M77.357,104.839h3.795v4.305c-0.701,0.717-1.977,1.339-3.746,1.339c-2.902,0-4.928-1.882-4.928-5.39v-0.032
		c0-3.173,1.994-5.229,5.023-5.229c1.723,0,2.727,0.479,3.285,0.988v2.264h-1.77v-1.451c-0.416-0.096-0.877-0.159-1.371-0.159
		c-1.881,0-3.03,1.163-3.03,3.269v0.543c0,2.502,1.067,3.604,2.966,3.604c0.542,0,1.068-0.08,1.547-0.207v-2.297h-1.77v-1.545
		H77.357z"/>
	<path fill="#FFFFFF" d="M89.207,100.056h3.843v1.546h-0.909v8.644h-2.758l-4.05-8.355v6.92h1.308v1.436h-3.955v-1.436h0.91v-7.208
		h-0.91v-1.546h3.955l3.764,7.925v-6.378h-1.196L89.207,100.056L89.207,100.056z"/>
</g>
</svg>
