<?xml version="1.0" encoding="utf-8"?>
<!-- Generator: Adobe Illustrator 16.1.0, SVG Export Plug-In . SVG Version: 6.00 Build 0)  -->
<!DOCTYPE svg PUBLIC "-//W3C//DTD SVG 1.1//EN" "http://www.w3.org/Graphics/SVG/1.1/DTD/svg11.dtd">
<svg version="1.1" xmlns="http://www.w3.org/2000/svg" xmlns:xlink="http://www.w3.org/1999/xlink" x="0px" y="0px"
	 width="92.333px" height="113.333px" viewBox="0 0 92.333 113.333" enable-background="new 0 0 92.333 113.333"
	 xml:space="preserve">
<g id="Layer_2">
</g>
<g id="Layer_1">
	<path fill="#FFFFFF" d="M46.517,0.276c-25.36,0-45.91,20.55-45.91,45.91c0,25.35,20.55,45.9,45.91,45.9
		c25.35,0,45.91-20.55,45.91-45.9C92.426,20.827,71.867,0.276,46.517,0.276z M39.486,33.327h-1.62c0-3.62-1.62-5.03-4.85-5.03h-9.1
		v15.91h5.87c3.03,0,3.63-1.61,4.03-4.23h1.43v11.29h-1.43c-0.4-3.03-1-4.23-4.24-4.23h-5.66v13.49c0,5.04,1.21,5.64,4.45,5.64v1.61
		h-15.36v-1.61c3.84,0,4.45-1,4.45-5.64v-29.61c0-2.82-1.22-4.03-4.45-4.03v-1.41h21.03c3.63,0,4.44-0.2,5.04-1.41h1.42
		L39.486,33.327z M76.886,67.716c-0.79-0.189-1.569-0.189-2.35-0.189c-1.57,0-4.33,0.77-7.66,0.77c-12.77,0-22.18-7.63-22.18-21.71
		c0-11.93,8.84-21.12,22.38-21.12c3.13,0,6.67,0.59,9.609,1.76c0.601-0.59,0.79-0.97,1.37-1.56h1.181
		c-0.19,2.15-0.98,9.19-0.98,9.19h-1.18c-0.78-4.1-2.94-6.85-9.811-6.85c-8.239,0-15.699,6.46-15.699,18.39
		c0,13.49,7.649,19.37,16.1,19.37c5.49,0,8.82-3.13,10.98-7.05l1.38,0.59L76.886,67.716z"/>
	<path display="none" d="M39.077,24.066h1.42l-1.01,9.26h-1.62c0-3.62-1.62-5.03-4.85-5.03h-9.1v15.91h5.87
		c3.03,0,3.63-1.61,4.03-4.23h1.43v11.29h-1.43c-0.4-3.03-1-4.23-4.24-4.23h-5.66v13.49c0,5.04,1.21,5.64,4.45,5.64v1.61h-15.36
		v-1.61c3.84,0,4.45-1,4.45-5.64v-29.61c0-2.82-1.22-4.03-4.45-4.03v-1.41h21.03C37.667,25.477,38.477,25.276,39.077,24.066z"/>
	<path display="none" d="M80.027,59.306l-3.141,8.41c-0.79-0.189-1.569-0.189-2.35-0.189c-1.57,0-4.33,0.77-7.66,0.77
		c-12.77,0-22.18-7.63-22.18-21.71c0-11.93,8.84-21.12,22.38-21.12c3.13,0,6.67,0.59,9.609,1.76c0.601-0.59,0.79-0.97,1.37-1.56
		h1.181c-0.19,2.15-0.98,9.19-0.98,9.19h-1.18c-0.78-4.1-2.94-6.85-9.811-6.85c-8.239,0-15.699,6.46-15.699,18.39
		c0,13.49,7.649,19.37,16.1,19.37c5.49,0,8.82-3.13,10.98-7.05L80.027,59.306z"/>
	<g display="none">
		<path display="inline" fill="#FFFFFF" d="M80.027,59.306l-3.141,8.41c-0.79-0.189-1.569-0.189-2.35-0.189
			c-1.57,0-4.33,0.77-7.66,0.77c-12.77,0-22.18-7.63-22.18-21.71c0-11.93,8.84-21.12,22.38-21.12c3.13,0,6.67,0.59,9.609,1.76
			c0.601-0.59,0.79-0.97,1.37-1.56h1.181c-0.19,2.15-0.98,9.19-0.98,9.19h-1.18c-0.78-4.1-2.94-6.85-9.811-6.85
			c-8.239,0-15.699,6.46-15.699,18.39c0,13.49,7.649,19.37,16.1,19.37c5.49,0,8.82-3.13,10.98-7.05L80.027,59.306z"/>
		<path display="inline" fill="#FFFFFF" d="M40.497,24.066l-1.01,9.26h-1.62c0-3.62-1.62-5.03-4.85-5.03h-9.1v15.91h5.87
			c3.03,0,3.63-1.61,4.03-4.23h1.43v11.29h-1.43c-0.4-3.03-1-4.23-4.24-4.23h-5.66v13.49c0,5.04,1.21,5.64,4.45,5.64v1.61h-15.36
			v-1.61c3.84,0,4.45-1,4.45-5.64v-29.61c0-2.82-1.22-4.03-4.45-4.03v-1.41h21.03c3.63,0,4.44-0.2,5.04-1.41H40.497z"/>
	</g>
</g>
</svg>
